<?xml version="1.0" encoding="UTF-8"?>
<svg xmlns="http://www.w3.org/2000/svg" version="1.1" width="200" height="200" viewBox="0 0 200 200"><rect x="0" y="0" width="200" height="200" fill="#ffffff"/><g transform="scale(6.897)"><g transform="translate(0,0)"><path fill-rule="evenodd" d="M8 0L8 1L10 1L10 0ZM13 0L13 1L14 1L14 2L11 2L11 4L10 4L10 3L9 3L9 2L8 2L8 5L9 5L9 6L8 6L8 7L9 7L9 8L8 8L8 9L7 9L7 8L6 8L6 9L4 9L4 8L0 8L0 12L1 12L1 13L0 13L0 14L1 14L1 15L0 15L0 16L3 16L3 19L2 19L2 20L1 20L1 21L5 21L5 20L6 20L6 21L8 21L8 22L9 22L9 23L10 23L10 24L9 24L9 25L8 25L8 29L10 29L10 27L11 27L11 29L15 29L15 27L14 27L14 26L12 26L12 27L11 27L11 26L10 26L10 27L9 27L9 25L11 25L11 23L13 23L13 25L14 25L14 24L16 24L16 23L18 23L18 22L17 22L17 21L19 21L19 24L20 24L20 25L21 25L21 26L19 26L19 25L18 25L18 24L17 24L17 26L18 26L18 29L19 29L19 28L20 28L20 29L21 29L21 27L22 27L22 25L23 25L23 28L24 28L24 29L25 29L25 28L26 28L26 25L27 25L27 26L28 26L28 27L27 27L27 29L28 29L28 27L29 27L29 25L28 25L28 24L29 24L29 23L28 23L28 22L29 22L29 21L27 21L27 18L28 18L28 15L29 15L29 13L27 13L27 12L26 12L26 11L28 11L28 12L29 12L29 11L28 11L28 10L29 10L29 8L28 8L28 10L26 10L26 11L24 11L24 10L25 10L25 9L27 9L27 8L24 8L24 9L22 9L22 8L21 8L21 6L20 6L20 5L21 5L21 4L20 4L20 3L21 3L21 2L20 2L20 3L19 3L19 5L18 5L18 3L17 3L17 4L16 4L16 2L15 2L15 0ZM16 0L16 1L17 1L17 0ZM19 0L19 1L21 1L21 0ZM14 3L14 4L15 4L15 3ZM12 4L12 5L10 5L10 6L9 6L9 7L10 7L10 8L9 8L9 9L10 9L10 10L8 10L8 11L6 11L6 10L7 10L7 9L6 9L6 10L5 10L5 11L6 11L6 12L7 12L7 13L6 13L6 14L7 14L7 13L8 13L8 14L9 14L9 12L10 12L10 13L11 13L11 14L10 14L10 15L6 15L6 16L8 16L8 17L6 17L6 18L5 18L5 15L4 15L4 14L2 14L2 13L4 13L4 11L3 11L3 12L2 12L2 10L3 10L3 9L2 9L2 10L1 10L1 12L2 12L2 13L1 13L1 14L2 14L2 15L3 15L3 16L4 16L4 20L5 20L5 19L6 19L6 20L7 20L7 19L6 19L6 18L8 18L8 19L9 19L9 22L10 22L10 19L11 19L11 21L12 21L12 20L13 20L13 22L14 22L14 23L16 23L16 21L17 21L17 20L15 20L15 19L14 19L14 18L13 18L13 17L12 17L12 18L11 18L11 17L10 17L10 16L14 16L14 14L15 14L15 15L17 15L17 16L15 16L15 17L16 17L16 19L18 19L18 18L19 18L19 21L20 21L20 19L21 19L21 16L22 16L22 19L23 19L23 16L24 16L24 15L25 15L25 17L24 17L24 20L26 20L26 19L25 19L25 18L26 18L26 17L27 17L27 15L25 15L25 14L27 14L27 13L25 13L25 12L22 12L22 10L21 10L21 9L20 9L20 10L18 10L18 9L17 9L17 10L16 10L16 9L15 9L15 8L17 8L17 7L18 7L18 5L15 5L15 7L14 7L14 5L13 5L13 4ZM12 5L12 7L13 7L13 5ZM10 6L10 7L11 7L11 6ZM16 6L16 7L17 7L17 6ZM19 6L19 8L20 8L20 6ZM12 8L12 9L11 9L11 11L13 11L13 13L14 13L14 12L15 12L15 14L18 14L18 15L20 15L20 14L21 14L21 15L22 15L22 16L23 16L23 15L24 15L24 14L23 14L23 13L22 13L22 14L21 14L21 12L20 12L20 11L21 11L21 10L20 10L20 11L18 11L18 12L17 12L17 11L15 11L15 9L14 9L14 11L13 11L13 8ZM8 11L8 12L9 12L9 11ZM11 12L11 13L12 13L12 12ZM18 12L18 14L19 14L19 13L20 13L20 12ZM22 14L22 15L23 15L23 14ZM18 16L18 17L17 17L17 18L18 18L18 17L19 17L19 16ZM1 17L1 18L0 18L0 19L1 19L1 18L2 18L2 17ZM8 17L8 18L9 18L9 19L10 19L10 17ZM12 18L12 19L13 19L13 18ZM14 21L14 22L15 22L15 21ZM21 21L21 24L24 24L24 21ZM22 22L22 23L23 23L23 22ZM26 22L26 23L25 23L25 25L26 25L26 24L27 24L27 22ZM15 25L15 26L16 26L16 25ZM24 26L24 28L25 28L25 26ZM13 27L13 28L14 28L14 27ZM16 28L16 29L17 29L17 28ZM0 0L0 7L7 7L7 0ZM1 1L1 6L6 6L6 1ZM2 2L2 5L5 5L5 2ZM22 0L22 7L29 7L29 0ZM23 1L23 6L28 6L28 1ZM24 2L24 5L27 5L27 2ZM0 22L0 29L7 29L7 22ZM1 23L1 28L6 28L6 23ZM2 24L2 27L5 27L5 24Z" fill="#000000"/></g></g></svg>
