<?xml version="1.0" encoding="UTF-8"?>
<svg xmlns="http://www.w3.org/2000/svg" version="1.1" width="100" height="100" viewBox="0 0 100 100"><rect x="0" y="0" width="100" height="100" fill="#ffffff"/><g transform="scale(3.448)"><g transform="translate(0,0)"><path fill-rule="evenodd" d="M9 0L9 1L8 1L8 2L9 2L9 3L8 3L8 4L10 4L10 7L11 7L11 8L6 8L6 9L8 9L8 11L9 11L9 12L5 12L5 13L8 13L8 14L12 14L12 16L13 16L13 17L11 17L11 16L10 16L10 15L9 15L9 16L8 16L8 15L7 15L7 14L6 14L6 15L7 15L7 16L6 16L6 17L8 17L8 19L10 19L10 21L8 21L8 23L9 23L9 22L10 22L10 21L11 21L11 22L13 22L13 23L12 23L12 24L13 24L13 25L11 25L11 26L13 26L13 25L14 25L14 26L15 26L15 27L14 27L14 28L13 28L13 27L10 27L10 26L9 26L9 24L8 24L8 29L9 29L9 28L13 28L13 29L14 29L14 28L15 28L15 29L18 29L18 28L21 28L21 29L22 29L22 28L21 28L21 25L25 25L25 26L22 26L22 27L23 27L23 29L24 29L24 27L25 27L25 28L26 28L26 29L27 29L27 28L28 28L28 26L29 26L29 25L28 25L28 24L26 24L26 23L27 23L27 22L29 22L29 20L28 20L28 19L27 19L27 16L28 16L28 15L27 15L27 12L28 12L28 11L27 11L27 12L25 12L25 13L21 13L21 12L22 12L22 11L23 11L23 12L24 12L24 11L25 11L25 9L26 9L26 8L25 8L25 9L24 9L24 8L23 8L23 9L22 9L22 8L20 8L20 9L18 9L18 8L17 8L17 9L16 9L16 10L15 10L15 9L14 9L14 8L16 8L16 7L17 7L17 4L18 4L18 5L20 5L20 3L21 3L21 0L19 0L19 1L17 1L17 0L16 0L16 1L15 1L15 0L13 0L13 1L11 1L11 2L10 2L10 0ZM13 1L13 2L12 2L12 3L14 3L14 5L16 5L16 4L17 4L17 3L18 3L18 4L19 4L19 3L18 3L18 2L17 2L17 1L16 1L16 2L15 2L15 1ZM19 1L19 2L20 2L20 1ZM14 2L14 3L15 3L15 4L16 4L16 3L17 3L17 2L16 2L16 3L15 3L15 2ZM10 3L10 4L11 4L11 7L12 7L12 6L13 6L13 8L11 8L11 9L10 9L10 11L12 11L12 12L10 12L10 13L13 13L13 14L14 14L14 13L15 13L15 14L16 14L16 13L15 13L15 12L18 12L18 13L17 13L17 16L16 16L16 17L15 17L15 16L14 16L14 15L13 15L13 16L14 16L14 17L13 17L13 20L12 20L12 18L11 18L11 17L10 17L10 16L9 16L9 17L10 17L10 18L11 18L11 20L12 20L12 21L13 21L13 22L14 22L14 21L15 21L15 22L16 22L16 21L15 21L15 20L16 20L16 19L17 19L17 20L18 20L18 21L17 21L17 24L16 24L16 23L15 23L15 24L14 24L14 23L13 23L13 24L14 24L14 25L15 25L15 26L17 26L17 27L15 27L15 28L18 28L18 27L20 27L20 23L19 23L19 24L18 24L18 22L19 22L19 20L22 20L22 19L23 19L23 20L24 20L24 19L25 19L25 21L26 21L26 20L27 20L27 19L25 19L25 18L24 18L24 19L23 19L23 18L22 18L22 17L26 17L26 16L27 16L27 15L26 15L26 13L25 13L25 16L24 16L24 15L23 15L23 16L22 16L22 14L21 14L21 13L20 13L20 12L21 12L21 9L20 9L20 10L19 10L19 11L17 11L17 10L18 10L18 9L17 9L17 10L16 10L16 11L15 11L15 10L14 10L14 9L13 9L13 8L14 8L14 6L13 6L13 5L12 5L12 4L11 4L11 3ZM8 5L8 7L9 7L9 5ZM15 6L15 7L16 7L16 6ZM18 6L18 7L19 7L19 6ZM20 6L20 7L21 7L21 6ZM0 8L0 9L5 9L5 8ZM27 8L27 9L28 9L28 10L29 10L29 9L28 9L28 8ZM11 9L11 10L12 10L12 11L13 11L13 9ZM1 10L1 11L2 11L2 12L3 12L3 16L5 16L5 14L4 14L4 11L2 11L2 10ZM6 10L6 11L7 11L7 10ZM23 10L23 11L24 11L24 10ZM14 11L14 12L13 12L13 13L14 13L14 12L15 12L15 11ZM1 13L1 14L0 14L0 15L1 15L1 16L2 16L2 15L1 15L1 14L2 14L2 13ZM18 13L18 14L20 14L20 13ZM28 13L28 14L29 14L29 13ZM17 16L17 17L16 17L16 18L15 18L15 17L14 17L14 20L13 20L13 21L14 21L14 20L15 20L15 19L16 19L16 18L18 18L18 19L19 19L19 18L20 18L20 17L21 17L21 16L20 16L20 17L18 17L18 16ZM0 17L0 21L1 21L1 18L2 18L2 21L3 21L3 20L4 20L4 19L7 19L7 18L4 18L4 17L3 17L3 18L2 18L2 17ZM28 17L28 18L29 18L29 17ZM3 18L3 19L4 19L4 18ZM21 18L21 19L22 19L22 18ZM6 20L6 21L7 21L7 20ZM21 21L21 24L24 24L24 21ZM22 22L22 23L23 23L23 22ZM17 24L17 25L18 25L18 24ZM25 24L25 25L26 25L26 24ZM27 25L27 26L25 26L25 27L26 27L26 28L27 28L27 26L28 26L28 25ZM0 0L0 7L7 7L7 0ZM1 1L1 6L6 6L6 1ZM2 2L2 5L5 5L5 2ZM22 0L22 7L29 7L29 0ZM23 1L23 6L28 6L28 1ZM24 2L24 5L27 5L27 2ZM0 22L0 29L7 29L7 22ZM1 23L1 28L6 28L6 23ZM2 24L2 27L5 27L5 24Z" fill="#000000"/></g></g></svg>
