<?xml version="1.0" encoding="UTF-8"?>
<svg xmlns="http://www.w3.org/2000/svg" version="1.1" width="200" height="200" viewBox="0 0 200 200"><rect x="0" y="0" width="200" height="200" fill="#ffffff"/><g transform="scale(6.897)"><g transform="translate(0,0)"><path fill-rule="evenodd" d="M9 0L9 1L8 1L8 2L9 2L9 3L8 3L8 4L10 4L10 7L11 7L11 8L6 8L6 9L7 9L7 10L6 10L6 11L5 11L5 12L6 12L6 13L5 13L5 16L3 16L3 15L4 15L4 13L3 13L3 11L2 11L2 9L3 9L3 10L5 10L5 8L0 8L0 10L1 10L1 11L0 11L0 12L2 12L2 13L3 13L3 14L1 14L1 13L0 13L0 15L2 15L2 16L3 16L3 17L2 17L2 21L4 21L4 20L5 20L5 17L7 17L7 18L6 18L6 19L7 19L7 20L6 20L6 21L8 21L8 23L9 23L9 24L8 24L8 29L10 29L10 28L13 28L13 29L14 29L14 28L15 28L15 29L18 29L18 28L21 28L21 29L22 29L22 28L21 28L21 25L25 25L25 26L22 26L22 27L23 27L23 29L24 29L24 27L25 27L25 28L26 28L26 29L27 29L27 28L28 28L28 26L29 26L29 25L28 25L28 24L26 24L26 23L27 23L27 22L29 22L29 20L28 20L28 19L27 19L27 16L28 16L28 15L27 15L27 12L28 12L28 11L27 11L27 12L25 12L25 13L21 13L21 12L22 12L22 11L23 11L23 12L24 12L24 11L25 11L25 9L26 9L26 8L25 8L25 9L24 9L24 8L23 8L23 9L22 9L22 8L20 8L20 9L18 9L18 8L17 8L17 9L16 9L16 10L15 10L15 9L14 9L14 8L16 8L16 7L17 7L17 4L18 4L18 5L20 5L20 3L21 3L21 0L19 0L19 1L17 1L17 0L16 0L16 1L15 1L15 0L13 0L13 1L11 1L11 2L10 2L10 0ZM13 1L13 2L12 2L12 3L14 3L14 5L16 5L16 4L17 4L17 3L18 3L18 4L19 4L19 3L18 3L18 2L17 2L17 1L16 1L16 2L15 2L15 1ZM19 1L19 2L20 2L20 1ZM14 2L14 3L15 3L15 4L16 4L16 3L17 3L17 2L16 2L16 3L15 3L15 2ZM10 3L10 4L11 4L11 7L12 7L12 6L13 6L13 8L11 8L11 9L10 9L10 11L11 11L11 12L10 12L10 13L8 13L8 14L7 14L7 13L6 13L6 14L7 14L7 15L6 15L6 16L7 16L7 17L8 17L8 16L9 16L9 17L10 17L10 19L9 19L9 20L8 20L8 21L9 21L9 22L10 22L10 24L11 24L11 25L13 25L13 26L9 26L9 28L10 28L10 27L13 27L13 28L14 28L14 27L15 27L15 28L18 28L18 27L20 27L20 23L19 23L19 24L18 24L18 22L19 22L19 20L22 20L22 19L23 19L23 20L24 20L24 19L25 19L25 21L26 21L26 20L27 20L27 19L25 19L25 18L24 18L24 19L23 19L23 18L22 18L22 17L26 17L26 16L27 16L27 15L26 15L26 13L25 13L25 16L24 16L24 15L23 15L23 16L22 16L22 14L21 14L21 13L20 13L20 12L21 12L21 9L20 9L20 10L19 10L19 11L17 11L17 10L18 10L18 9L17 9L17 10L16 10L16 11L15 11L15 10L14 10L14 9L13 9L13 8L14 8L14 6L13 6L13 5L12 5L12 4L11 4L11 3ZM8 5L8 7L9 7L9 5ZM15 6L15 7L16 7L16 6ZM18 6L18 7L19 7L19 6ZM20 6L20 7L21 7L21 6ZM27 8L27 9L28 9L28 10L29 10L29 9L28 9L28 8ZM11 9L11 10L13 10L13 9ZM8 10L8 11L6 11L6 12L8 12L8 11L9 11L9 10ZM23 10L23 11L24 11L24 10ZM14 11L14 12L13 12L13 13L10 13L10 14L9 14L9 16L10 16L10 14L12 14L12 16L11 16L11 18L13 18L13 17L14 17L14 20L13 20L13 21L11 21L11 20L10 20L10 21L11 21L11 22L13 22L13 23L12 23L12 24L13 24L13 25L14 25L14 26L15 26L15 27L17 27L17 26L15 26L15 25L14 25L14 24L15 24L15 23L16 23L16 24L17 24L17 25L18 25L18 24L17 24L17 21L18 21L18 20L17 20L17 19L16 19L16 18L18 18L18 19L19 19L19 18L20 18L20 17L21 17L21 16L20 16L20 17L18 17L18 16L17 16L17 13L18 13L18 14L20 14L20 13L18 13L18 12L15 12L15 11ZM14 12L14 13L13 13L13 14L14 14L14 13L15 13L15 14L16 14L16 13L15 13L15 12ZM28 13L28 14L29 14L29 13ZM13 15L13 16L12 16L12 17L13 17L13 16L14 16L14 17L15 17L15 18L16 18L16 17L17 17L17 16L16 16L16 17L15 17L15 16L14 16L14 15ZM0 16L0 21L1 21L1 16ZM28 17L28 18L29 18L29 17ZM3 18L3 20L4 20L4 18ZM21 18L21 19L22 19L22 18ZM15 19L15 20L14 20L14 21L13 21L13 22L14 22L14 21L15 21L15 22L16 22L16 21L15 21L15 20L16 20L16 19ZM21 21L21 24L24 24L24 21ZM22 22L22 23L23 23L23 22ZM13 23L13 24L14 24L14 23ZM25 24L25 25L26 25L26 24ZM27 25L27 26L25 26L25 27L26 27L26 28L27 28L27 26L28 26L28 25ZM0 0L0 7L7 7L7 0ZM1 1L1 6L6 6L6 1ZM2 2L2 5L5 5L5 2ZM22 0L22 7L29 7L29 0ZM23 1L23 6L28 6L28 1ZM24 2L24 5L27 5L27 2ZM0 22L0 29L7 29L7 22ZM1 23L1 28L6 28L6 23ZM2 24L2 27L5 27L5 24Z" fill="#000000"/></g></g></svg>
