<?xml version="1.0" encoding="UTF-8"?>
<svg xmlns="http://www.w3.org/2000/svg" version="1.1" width="100" height="100" viewBox="0 0 100 100"><rect x="0" y="0" width="100" height="100" fill="#ffffff"/><g transform="scale(3.448)"><g transform="translate(0,0)"><path fill-rule="evenodd" d="M8 0L8 1L10 1L10 0ZM13 0L13 1L14 1L14 2L11 2L11 4L10 4L10 3L9 3L9 2L8 2L8 5L9 5L9 6L8 6L8 7L9 7L9 8L8 8L8 9L9 9L9 10L10 10L10 9L9 9L9 8L10 8L10 7L11 7L11 6L10 6L10 5L12 5L12 7L13 7L13 5L14 5L14 7L15 7L15 5L18 5L18 7L17 7L17 6L16 6L16 7L17 7L17 8L15 8L15 9L14 9L14 11L13 11L13 13L14 13L14 12L15 12L15 14L14 14L14 16L13 16L13 15L10 15L10 14L11 14L11 13L10 13L10 12L9 12L9 11L8 11L8 10L5 10L5 9L4 9L4 8L0 8L0 10L2 10L2 11L1 11L1 13L0 13L0 16L1 16L1 17L2 17L2 15L3 15L3 14L4 14L4 12L5 12L5 15L4 15L4 16L3 16L3 18L4 18L4 17L5 17L5 15L8 15L8 14L9 14L9 17L8 17L8 18L10 18L10 16L11 16L11 18L12 18L12 17L13 17L13 18L14 18L14 19L15 19L15 20L17 20L17 21L16 21L16 23L14 23L14 22L15 22L15 21L14 21L14 22L13 22L13 19L12 19L12 21L11 21L11 20L10 20L10 22L9 22L9 19L7 19L7 18L6 18L6 19L7 19L7 20L6 20L6 21L8 21L8 22L9 22L9 23L13 23L13 25L14 25L14 24L16 24L16 23L18 23L18 22L17 22L17 21L19 21L19 24L20 24L20 25L21 25L21 26L19 26L19 25L18 25L18 24L17 24L17 26L18 26L18 29L19 29L19 28L20 28L20 29L21 29L21 27L22 27L22 25L23 25L23 28L24 28L24 29L25 29L25 28L26 28L26 25L27 25L27 26L28 26L28 27L27 27L27 29L28 29L28 27L29 27L29 25L28 25L28 24L29 24L29 23L28 23L28 22L29 22L29 21L27 21L27 18L28 18L28 15L29 15L29 13L27 13L27 12L26 12L26 11L28 11L28 12L29 12L29 11L28 11L28 10L29 10L29 8L28 8L28 10L26 10L26 11L24 11L24 10L25 10L25 9L27 9L27 8L24 8L24 9L22 9L22 8L21 8L21 6L20 6L20 5L21 5L21 4L20 4L20 3L21 3L21 2L20 2L20 3L19 3L19 5L18 5L18 3L17 3L17 4L16 4L16 2L15 2L15 0ZM16 0L16 1L17 1L17 0ZM19 0L19 1L21 1L21 0ZM14 3L14 4L15 4L15 3ZM12 4L12 5L13 5L13 4ZM9 6L9 7L10 7L10 6ZM19 6L19 8L20 8L20 6ZM6 8L6 9L7 9L7 8ZM12 8L12 9L11 9L11 12L12 12L12 10L13 10L13 8ZM3 9L3 12L2 12L2 13L1 13L1 15L2 15L2 13L3 13L3 12L4 12L4 9ZM15 9L15 11L17 11L17 12L18 12L18 14L15 14L15 15L17 15L17 16L15 16L15 17L16 17L16 19L18 19L18 18L19 18L19 21L20 21L20 19L21 19L21 16L22 16L22 19L23 19L23 16L24 16L24 15L25 15L25 17L24 17L24 20L26 20L26 19L25 19L25 18L26 18L26 17L27 17L27 15L25 15L25 14L27 14L27 13L25 13L25 12L22 12L22 10L21 10L21 9L20 9L20 10L18 10L18 9L17 9L17 10L16 10L16 9ZM20 10L20 11L18 11L18 12L20 12L20 13L19 13L19 14L18 14L18 15L20 15L20 14L21 14L21 15L22 15L22 16L23 16L23 15L24 15L24 14L23 14L23 13L22 13L22 14L21 14L21 12L20 12L20 11L21 11L21 10ZM6 11L6 12L8 12L8 13L9 13L9 12L8 12L8 11ZM6 13L6 14L7 14L7 13ZM22 14L22 15L23 15L23 14ZM6 16L6 17L7 17L7 16ZM18 16L18 17L17 17L17 18L18 18L18 17L19 17L19 16ZM0 18L0 19L1 19L1 18ZM2 19L2 20L1 20L1 21L2 21L2 20L3 20L3 19ZM4 20L4 21L5 21L5 20ZM21 21L21 24L24 24L24 21ZM22 22L22 23L23 23L23 22ZM26 22L26 23L25 23L25 25L26 25L26 24L27 24L27 22ZM10 24L10 25L8 25L8 29L10 29L10 28L11 28L11 29L15 29L15 27L14 27L14 26L12 26L12 27L10 27L10 26L11 26L11 24ZM15 25L15 26L16 26L16 25ZM24 26L24 28L25 28L25 26ZM9 27L9 28L10 28L10 27ZM13 27L13 28L14 28L14 27ZM16 28L16 29L17 29L17 28ZM0 0L0 7L7 7L7 0ZM1 1L1 6L6 6L6 1ZM2 2L2 5L5 5L5 2ZM22 0L22 7L29 7L29 0ZM23 1L23 6L28 6L28 1ZM24 2L24 5L27 5L27 2ZM0 22L0 29L7 29L7 22ZM1 23L1 28L6 28L6 23ZM2 24L2 27L5 27L5 24Z" fill="#000000"/></g></g></svg>
